<svg xmlns="http://www.w3.org/2000/svg" viewBox="0 0 64 64" role="img" aria-label="Surga Indonesia Travel logo">
  <defs>
    <linearGradient id="g1" x1="0" y1="0" x2="1" y2="1">
      <stop offset="0%" stop-color="#f59e0b" />
      <stop offset="100%" stop-color="#f97316" />
    </linearGradient>
    <linearGradient id="g2" x1="0" y1="0" x2="1" y2="1">
      <stop offset="0%" stop-color="#0f172a" />
      <stop offset="100%" stop-color="#1e293b" />
    </linearGradient>
  </defs>
  <rect width="64" height="64" rx="16" fill="url(#g2)" />
  <circle cx="44" cy="20" r="7" fill="url(#g1)" />
  <path d="M16 42c4-4 8-6 12-6s8 2 12 6c2-2 4-3 7-3 2 0 4 0 6 1-3 7-9 12-17 12-9 0-16-4-20-10z" fill="#f8fafc" opacity=".92" />
  <path d="M26 40l2-11h4l2 11h-3l-1-5-1 5z" fill="#fef3c7" />
</svg>
